<?xml version="1.0" encoding="utf-8" standalone="no"?>
<!DOCTYPE svg PUBLIC "-//W3C//DTD SVG 1.1//EN"
  "http://www.w3.org/Graphics/SVG/1.1/DTD/svg11.dtd">
<!-- Created with matplotlib (https://matplotlib.org/) -->
<svg height="345.6pt" version="1.1" viewBox="0 0 460.8 345.6" width="460.8pt" xmlns="http://www.w3.org/2000/svg" xmlns:xlink="http://www.w3.org/1999/xlink">
 <metadata>
  <rdf:RDF xmlns:cc="http://creativecommons.org/ns#" xmlns:dc="http://purl.org/dc/elements/1.1/" xmlns:rdf="http://www.w3.org/1999/02/22-rdf-syntax-ns#">
   <cc:Work>
    <dc:type rdf:resource="http://purl.org/dc/dcmitype/StillImage"/>
    <dc:date>2021-09-14T23:10:23.412263</dc:date>
    <dc:format>image/svg+xml</dc:format>
    <dc:creator>
     <cc:Agent>
      <dc:title>Matplotlib v3.3.3, https://matplotlib.org/</dc:title>
     </cc:Agent>
    </dc:creator>
   </cc:Work>
  </rdf:RDF>
 </metadata>
 <defs>
  <style type="text/css">*{stroke-linecap:butt;stroke-linejoin:round;}</style>
 </defs>
 <g id="figure_1">
  <g id="patch_1">
   <path d="M 0 345.6 
L 460.8 345.6 
L 460.8 0 
L 0 0 
z
" style="fill:#ffffff;"/>
  </g>
  <g id="axes_1">
   <g id="patch_2">
    <path d="M 57.6 307.584 
L 414.72 307.584 
L 414.72 41.472 
L 57.6 41.472 
z
" style="fill:#ffffff;"/>
   </g>
   <g id="matplotlib.axis_1">
    <g id="xtick_1">
     <g id="line2d_1">
      <defs>
       <path d="M 0 0 
L 0 3.5 
" id="m8e58ff4fe8" style="stroke:#000000;stroke-width:0.8;"/>
      </defs>
      <g>
       <use style="stroke:#000000;stroke-width:0.8;" x="73.832727" xlink:href="#m8e58ff4fe8" y="307.584"/>
      </g>
     </g>
     <g id="text_1">
      <!-- 0 -->
      <g transform="translate(70.651477 322.182437)scale(0.1 -0.1)">
       <defs>
        <path d="M 31.78125 66.40625 
Q 24.171875 66.40625 20.328125 58.90625 
Q 16.5 51.421875 16.5 36.375 
Q 16.5 21.390625 20.328125 13.890625 
Q 24.171875 6.390625 31.78125 6.390625 
Q 39.453125 6.390625 43.28125 13.890625 
Q 47.125 21.390625 47.125 36.375 
Q 47.125 51.421875 43.28125 58.90625 
Q 39.453125 66.40625 31.78125 66.40625 
z
M 31.78125 74.21875 
Q 44.046875 74.21875 50.515625 64.515625 
Q 56.984375 54.828125 56.984375 36.375 
Q 56.984375 17.96875 50.515625 8.265625 
Q 44.046875 -1.421875 31.78125 -1.421875 
Q 19.53125 -1.421875 13.0625 8.265625 
Q 6.59375 17.96875 6.59375 36.375 
Q 6.59375 54.828125 13.0625 64.515625 
Q 19.53125 74.21875 31.78125 74.21875 
z
" id="DejaVuSans-48"/>
       </defs>
       <use xlink:href="#DejaVuSans-48"/>
      </g>
     </g>
    </g>
    <g id="xtick_2">
     <g id="line2d_2">
      <g>
       <use style="stroke:#000000;stroke-width:0.8;" x="138.893758" xlink:href="#m8e58ff4fe8" y="307.584"/>
      </g>
     </g>
     <g id="text_2">
      <!-- 100 -->
      <g transform="translate(129.350008 322.182437)scale(0.1 -0.1)">
       <defs>
        <path d="M 12.40625 8.296875 
L 28.515625 8.296875 
L 28.515625 63.921875 
L 10.984375 60.40625 
L 10.984375 69.390625 
L 28.421875 72.90625 
L 38.28125 72.90625 
L 38.28125 8.296875 
L 54.390625 8.296875 
L 54.390625 0 
L 12.40625 0 
z
" id="DejaVuSans-49"/>
       </defs>
       <use xlink:href="#DejaVuSans-49"/>
       <use x="63.623047" xlink:href="#DejaVuSans-48"/>
       <use x="127.246094" xlink:href="#DejaVuSans-48"/>
      </g>
     </g>
    </g>
    <g id="xtick_3">
     <g id="line2d_3">
      <g>
       <use style="stroke:#000000;stroke-width:0.8;" x="203.95479" xlink:href="#m8e58ff4fe8" y="307.584"/>
      </g>
     </g>
     <g id="text_3">
      <!-- 200 -->
      <g transform="translate(194.41104 322.182437)scale(0.1 -0.1)">
       <defs>
        <path d="M 19.1875 8.296875 
L 53.609375 8.296875 
L 53.609375 0 
L 7.328125 0 
L 7.328125 8.296875 
Q 12.9375 14.109375 22.625 23.890625 
Q 32.328125 33.6875 34.8125 36.53125 
Q 39.546875 41.84375 41.421875 45.53125 
Q 43.3125 49.21875 43.3125 52.78125 
Q 43.3125 58.59375 39.234375 62.25 
Q 35.15625 65.921875 28.609375 65.921875 
Q 23.96875 65.921875 18.8125 64.3125 
Q 13.671875 62.703125 7.8125 59.421875 
L 7.8125 69.390625 
Q 13.765625 71.78125 18.9375 73 
Q 24.125 74.21875 28.421875 74.21875 
Q 39.75 74.21875 46.484375 68.546875 
Q 53.21875 62.890625 53.21875 53.421875 
Q 53.21875 48.921875 51.53125 44.890625 
Q 49.859375 40.875 45.40625 35.40625 
Q 44.1875 33.984375 37.640625 27.21875 
Q 31.109375 20.453125 19.1875 8.296875 
z
" id="DejaVuSans-50"/>
       </defs>
       <use xlink:href="#DejaVuSans-50"/>
       <use x="63.623047" xlink:href="#DejaVuSans-48"/>
       <use x="127.246094" xlink:href="#DejaVuSans-48"/>
      </g>
     </g>
    </g>
    <g id="xtick_4">
     <g id="line2d_4">
      <g>
       <use style="stroke:#000000;stroke-width:0.8;" x="269.015821" xlink:href="#m8e58ff4fe8" y="307.584"/>
      </g>
     </g>
     <g id="text_4">
      <!-- 300 -->
      <g transform="translate(259.472071 322.182437)scale(0.1 -0.1)">
       <defs>
        <path d="M 40.578125 39.3125 
Q 47.65625 37.796875 51.625 33 
Q 55.609375 28.21875 55.609375 21.1875 
Q 55.609375 10.40625 48.1875 4.484375 
Q 40.765625 -1.421875 27.09375 -1.421875 
Q 22.515625 -1.421875 17.65625 -0.515625 
Q 12.796875 0.390625 7.625 2.203125 
L 7.625 11.71875 
Q 11.71875 9.328125 16.59375 8.109375 
Q 21.484375 6.890625 26.8125 6.890625 
Q 36.078125 6.890625 40.9375 10.546875 
Q 45.796875 14.203125 45.796875 21.1875 
Q 45.796875 27.640625 41.28125 31.265625 
Q 36.765625 34.90625 28.71875 34.90625 
L 20.21875 34.90625 
L 20.21875 43.015625 
L 29.109375 43.015625 
Q 36.375 43.015625 40.234375 45.921875 
Q 44.09375 48.828125 44.09375 54.296875 
Q 44.09375 59.90625 40.109375 62.90625 
Q 36.140625 65.921875 28.71875 65.921875 
Q 24.65625 65.921875 20.015625 65.03125 
Q 15.375 64.15625 9.8125 62.3125 
L 9.8125 71.09375 
Q 15.4375 72.65625 20.34375 73.4375 
Q 25.25 74.21875 29.59375 74.21875 
Q 40.828125 74.21875 47.359375 69.109375 
Q 53.90625 64.015625 53.90625 55.328125 
Q 53.90625 49.265625 50.4375 45.09375 
Q 46.96875 40.921875 40.578125 39.3125 
z
" id="DejaVuSans-51"/>
       </defs>
       <use xlink:href="#DejaVuSans-51"/>
       <use x="63.623047" xlink:href="#DejaVuSans-48"/>
       <use x="127.246094" xlink:href="#DejaVuSans-48"/>
      </g>
     </g>
    </g>
    <g id="xtick_5">
     <g id="line2d_5">
      <g>
       <use style="stroke:#000000;stroke-width:0.8;" x="334.076852" xlink:href="#m8e58ff4fe8" y="307.584"/>
      </g>
     </g>
     <g id="text_5">
      <!-- 400 -->
      <g transform="translate(324.533102 322.182437)scale(0.1 -0.1)">
       <defs>
        <path d="M 37.796875 64.3125 
L 12.890625 25.390625 
L 37.796875 25.390625 
z
M 35.203125 72.90625 
L 47.609375 72.90625 
L 47.609375 25.390625 
L 58.015625 25.390625 
L 58.015625 17.1875 
L 47.609375 17.1875 
L 47.609375 0 
L 37.796875 0 
L 37.796875 17.1875 
L 4.890625 17.1875 
L 4.890625 26.703125 
z
" id="DejaVuSans-52"/>
       </defs>
       <use xlink:href="#DejaVuSans-52"/>
       <use x="63.623047" xlink:href="#DejaVuSans-48"/>
       <use x="127.246094" xlink:href="#DejaVuSans-48"/>
      </g>
     </g>
    </g>
    <g id="xtick_6">
     <g id="line2d_6">
      <g>
       <use style="stroke:#000000;stroke-width:0.8;" x="399.137883" xlink:href="#m8e58ff4fe8" y="307.584"/>
      </g>
     </g>
     <g id="text_6">
      <!-- 500 -->
      <g transform="translate(389.594133 322.182437)scale(0.1 -0.1)">
       <defs>
        <path d="M 10.796875 72.90625 
L 49.515625 72.90625 
L 49.515625 64.59375 
L 19.828125 64.59375 
L 19.828125 46.734375 
Q 21.96875 47.46875 24.109375 47.828125 
Q 26.265625 48.1875 28.421875 48.1875 
Q 40.625 48.1875 47.75 41.5 
Q 54.890625 34.8125 54.890625 23.390625 
Q 54.890625 11.625 47.5625 5.09375 
Q 40.234375 -1.421875 26.90625 -1.421875 
Q 22.3125 -1.421875 17.546875 -0.640625 
Q 12.796875 0.140625 7.71875 1.703125 
L 7.71875 11.625 
Q 12.109375 9.234375 16.796875 8.0625 
Q 21.484375 6.890625 26.703125 6.890625 
Q 35.15625 6.890625 40.078125 11.328125 
Q 45.015625 15.765625 45.015625 23.390625 
Q 45.015625 31 40.078125 35.4375 
Q 35.15625 39.890625 26.703125 39.890625 
Q 22.75 39.890625 18.8125 39.015625 
Q 14.890625 38.140625 10.796875 36.28125 
z
" id="DejaVuSans-53"/>
       </defs>
       <use xlink:href="#DejaVuSans-53"/>
       <use x="63.623047" xlink:href="#DejaVuSans-48"/>
       <use x="127.246094" xlink:href="#DejaVuSans-48"/>
      </g>
     </g>
    </g>
    <g id="text_7">
     <!-- Iterations -->
     <g transform="translate(212.346719 335.860562)scale(0.1 -0.1)">
      <defs>
       <path d="M 9.8125 72.90625 
L 19.671875 72.90625 
L 19.671875 0 
L 9.8125 0 
z
" id="DejaVuSans-73"/>
       <path d="M 18.3125 70.21875 
L 18.3125 54.6875 
L 36.8125 54.6875 
L 36.8125 47.703125 
L 18.3125 47.703125 
L 18.3125 18.015625 
Q 18.3125 11.328125 20.140625 9.421875 
Q 21.96875 7.515625 27.59375 7.515625 
L 36.8125 7.515625 
L 36.8125 0 
L 27.59375 0 
Q 17.1875 0 13.234375 3.875 
Q 9.28125 7.765625 9.28125 18.015625 
L 9.28125 47.703125 
L 2.6875 47.703125 
L 2.6875 54.6875 
L 9.28125 54.6875 
L 9.28125 70.21875 
z
" id="DejaVuSans-116"/>
       <path d="M 56.203125 29.59375 
L 56.203125 25.203125 
L 14.890625 25.203125 
Q 15.484375 15.921875 20.484375 11.0625 
Q 25.484375 6.203125 34.421875 6.203125 
Q 39.59375 6.203125 44.453125 7.46875 
Q 49.3125 8.734375 54.109375 11.28125 
L 54.109375 2.78125 
Q 49.265625 0.734375 44.1875 -0.34375 
Q 39.109375 -1.421875 33.890625 -1.421875 
Q 20.796875 -1.421875 13.15625 6.1875 
Q 5.515625 13.8125 5.515625 26.8125 
Q 5.515625 40.234375 12.765625 48.109375 
Q 20.015625 56 32.328125 56 
Q 43.359375 56 49.78125 48.890625 
Q 56.203125 41.796875 56.203125 29.59375 
z
M 47.21875 32.234375 
Q 47.125 39.59375 43.09375 43.984375 
Q 39.0625 48.390625 32.421875 48.390625 
Q 24.90625 48.390625 20.390625 44.140625 
Q 15.875 39.890625 15.1875 32.171875 
z
" id="DejaVuSans-101"/>
       <path d="M 41.109375 46.296875 
Q 39.59375 47.171875 37.8125 47.578125 
Q 36.03125 48 33.890625 48 
Q 26.265625 48 22.1875 43.046875 
Q 18.109375 38.09375 18.109375 28.8125 
L 18.109375 0 
L 9.078125 0 
L 9.078125 54.6875 
L 18.109375 54.6875 
L 18.109375 46.1875 
Q 20.953125 51.171875 25.484375 53.578125 
Q 30.03125 56 36.53125 56 
Q 37.453125 56 38.578125 55.875 
Q 39.703125 55.765625 41.0625 55.515625 
z
" id="DejaVuSans-114"/>
       <path d="M 34.28125 27.484375 
Q 23.390625 27.484375 19.1875 25 
Q 14.984375 22.515625 14.984375 16.5 
Q 14.984375 11.71875 18.140625 8.90625 
Q 21.296875 6.109375 26.703125 6.109375 
Q 34.1875 6.109375 38.703125 11.40625 
Q 43.21875 16.703125 43.21875 25.484375 
L 43.21875 27.484375 
z
M 52.203125 31.203125 
L 52.203125 0 
L 43.21875 0 
L 43.21875 8.296875 
Q 40.140625 3.328125 35.546875 0.953125 
Q 30.953125 -1.421875 24.3125 -1.421875 
Q 15.921875 -1.421875 10.953125 3.296875 
Q 6 8.015625 6 15.921875 
Q 6 25.140625 12.171875 29.828125 
Q 18.359375 34.515625 30.609375 34.515625 
L 43.21875 34.515625 
L 43.21875 35.40625 
Q 43.21875 41.609375 39.140625 45 
Q 35.0625 48.390625 27.6875 48.390625 
Q 23 48.390625 18.546875 47.265625 
Q 14.109375 46.140625 10.015625 43.890625 
L 10.015625 52.203125 
Q 14.9375 54.109375 19.578125 55.046875 
Q 24.21875 56 28.609375 56 
Q 40.484375 56 46.34375 49.84375 
Q 52.203125 43.703125 52.203125 31.203125 
z
" id="DejaVuSans-97"/>
       <path d="M 9.421875 54.6875 
L 18.40625 54.6875 
L 18.40625 0 
L 9.421875 0 
z
M 9.421875 75.984375 
L 18.40625 75.984375 
L 18.40625 64.59375 
L 9.421875 64.59375 
z
" id="DejaVuSans-105"/>
       <path d="M 30.609375 48.390625 
Q 23.390625 48.390625 19.1875 42.75 
Q 14.984375 37.109375 14.984375 27.296875 
Q 14.984375 17.484375 19.15625 11.84375 
Q 23.34375 6.203125 30.609375 6.203125 
Q 37.796875 6.203125 41.984375 11.859375 
Q 46.1875 17.53125 46.1875 27.296875 
Q 46.1875 37.015625 41.984375 42.703125 
Q 37.796875 48.390625 30.609375 48.390625 
z
M 30.609375 56 
Q 42.328125 56 49.015625 48.375 
Q 55.71875 40.765625 55.71875 27.296875 
Q 55.71875 13.875 49.015625 6.21875 
Q 42.328125 -1.421875 30.609375 -1.421875 
Q 18.84375 -1.421875 12.171875 6.21875 
Q 5.515625 13.875 5.515625 27.296875 
Q 5.515625 40.765625 12.171875 48.375 
Q 18.84375 56 30.609375 56 
z
" id="DejaVuSans-111"/>
       <path d="M 54.890625 33.015625 
L 54.890625 0 
L 45.90625 0 
L 45.90625 32.71875 
Q 45.90625 40.484375 42.875 44.328125 
Q 39.84375 48.1875 33.796875 48.1875 
Q 26.515625 48.1875 22.3125 43.546875 
Q 18.109375 38.921875 18.109375 30.90625 
L 18.109375 0 
L 9.078125 0 
L 9.078125 54.6875 
L 18.109375 54.6875 
L 18.109375 46.1875 
Q 21.34375 51.125 25.703125 53.5625 
Q 30.078125 56 35.796875 56 
Q 45.21875 56 50.046875 50.171875 
Q 54.890625 44.34375 54.890625 33.015625 
z
" id="DejaVuSans-110"/>
       <path d="M 44.28125 53.078125 
L 44.28125 44.578125 
Q 40.484375 46.53125 36.375 47.5 
Q 32.28125 48.484375 27.875 48.484375 
Q 21.1875 48.484375 17.84375 46.4375 
Q 14.5 44.390625 14.5 40.28125 
Q 14.5 37.15625 16.890625 35.375 
Q 19.28125 33.59375 26.515625 31.984375 
L 29.59375 31.296875 
Q 39.15625 29.25 43.1875 25.515625 
Q 47.21875 21.78125 47.21875 15.09375 
Q 47.21875 7.46875 41.1875 3.015625 
Q 35.15625 -1.421875 24.609375 -1.421875 
Q 20.21875 -1.421875 15.453125 -0.5625 
Q 10.6875 0.296875 5.421875 2 
L 5.421875 11.28125 
Q 10.40625 8.6875 15.234375 7.390625 
Q 20.0625 6.109375 24.8125 6.109375 
Q 31.15625 6.109375 34.5625 8.28125 
Q 37.984375 10.453125 37.984375 14.40625 
Q 37.984375 18.0625 35.515625 20.015625 
Q 33.0625 21.96875 24.703125 23.78125 
L 21.578125 24.515625 
Q 13.234375 26.265625 9.515625 29.90625 
Q 5.8125 33.546875 5.8125 39.890625 
Q 5.8125 47.609375 11.28125 51.796875 
Q 16.75 56 26.8125 56 
Q 31.78125 56 36.171875 55.265625 
Q 40.578125 54.546875 44.28125 53.078125 
z
" id="DejaVuSans-115"/>
      </defs>
      <use xlink:href="#DejaVuSans-73"/>
      <use x="29.492188" xlink:href="#DejaVuSans-116"/>
      <use x="68.701172" xlink:href="#DejaVuSans-101"/>
      <use x="130.224609" xlink:href="#DejaVuSans-114"/>
      <use x="171.337891" xlink:href="#DejaVuSans-97"/>
      <use x="232.617188" xlink:href="#DejaVuSans-116"/>
      <use x="271.826172" xlink:href="#DejaVuSans-105"/>
      <use x="299.609375" xlink:href="#DejaVuSans-111"/>
      <use x="360.791016" xlink:href="#DejaVuSans-110"/>
      <use x="424.169922" xlink:href="#DejaVuSans-115"/>
     </g>
    </g>
   </g>
   <g id="matplotlib.axis_2">
    <g id="ytick_1">
     <g id="line2d_7">
      <defs>
       <path d="M 0 0 
L -3.5 0 
" id="m68d67b99a7" style="stroke:#000000;stroke-width:0.8;"/>
      </defs>
      <g>
       <use style="stroke:#000000;stroke-width:0.8;" x="57.6" xlink:href="#m68d67b99a7" y="301.800744"/>
      </g>
     </g>
     <g id="text_8">
      <!-- 0.0 -->
      <g transform="translate(34.696875 305.599963)scale(0.1 -0.1)">
       <defs>
        <path d="M 10.6875 12.40625 
L 21 12.40625 
L 21 0 
L 10.6875 0 
z
" id="DejaVuSans-46"/>
       </defs>
       <use xlink:href="#DejaVuSans-48"/>
       <use x="63.623047" xlink:href="#DejaVuSans-46"/>
       <use x="95.410156" xlink:href="#DejaVuSans-48"/>
      </g>
     </g>
    </g>
    <g id="ytick_2">
     <g id="line2d_8">
      <g>
       <use style="stroke:#000000;stroke-width:0.8;" x="57.6" xlink:href="#m68d67b99a7" y="267.799718"/>
      </g>
     </g>
     <g id="text_9">
      <!-- 2.5 -->
      <g transform="translate(34.696875 271.598937)scale(0.1 -0.1)">
       <use xlink:href="#DejaVuSans-50"/>
       <use x="63.623047" xlink:href="#DejaVuSans-46"/>
       <use x="95.410156" xlink:href="#DejaVuSans-53"/>
      </g>
     </g>
    </g>
    <g id="ytick_3">
     <g id="line2d_9">
      <g>
       <use style="stroke:#000000;stroke-width:0.8;" x="57.6" xlink:href="#m68d67b99a7" y="233.798693"/>
      </g>
     </g>
     <g id="text_10">
      <!-- 5.0 -->
      <g transform="translate(34.696875 237.597911)scale(0.1 -0.1)">
       <use xlink:href="#DejaVuSans-53"/>
       <use x="63.623047" xlink:href="#DejaVuSans-46"/>
       <use x="95.410156" xlink:href="#DejaVuSans-48"/>
      </g>
     </g>
    </g>
    <g id="ytick_4">
     <g id="line2d_10">
      <g>
       <use style="stroke:#000000;stroke-width:0.8;" x="57.6" xlink:href="#m68d67b99a7" y="199.797667"/>
      </g>
     </g>
     <g id="text_11">
      <!-- 7.5 -->
      <g transform="translate(34.696875 203.596886)scale(0.1 -0.1)">
       <defs>
        <path d="M 8.203125 72.90625 
L 55.078125 72.90625 
L 55.078125 68.703125 
L 28.609375 0 
L 18.3125 0 
L 43.21875 64.59375 
L 8.203125 64.59375 
z
" id="DejaVuSans-55"/>
       </defs>
       <use xlink:href="#DejaVuSans-55"/>
       <use x="63.623047" xlink:href="#DejaVuSans-46"/>
       <use x="95.410156" xlink:href="#DejaVuSans-53"/>
      </g>
     </g>
    </g>
    <g id="ytick_5">
     <g id="line2d_11">
      <g>
       <use style="stroke:#000000;stroke-width:0.8;" x="57.6" xlink:href="#m68d67b99a7" y="165.796641"/>
      </g>
     </g>
     <g id="text_12">
      <!-- 10.0 -->
      <g transform="translate(28.334375 169.59586)scale(0.1 -0.1)">
       <use xlink:href="#DejaVuSans-49"/>
       <use x="63.623047" xlink:href="#DejaVuSans-48"/>
       <use x="127.246094" xlink:href="#DejaVuSans-46"/>
       <use x="159.033203" xlink:href="#DejaVuSans-48"/>
      </g>
     </g>
    </g>
    <g id="ytick_6">
     <g id="line2d_12">
      <g>
       <use style="stroke:#000000;stroke-width:0.8;" x="57.6" xlink:href="#m68d67b99a7" y="131.795616"/>
      </g>
     </g>
     <g id="text_13">
      <!-- 12.5 -->
      <g transform="translate(28.334375 135.594834)scale(0.1 -0.1)">
       <use xlink:href="#DejaVuSans-49"/>
       <use x="63.623047" xlink:href="#DejaVuSans-50"/>
       <use x="127.246094" xlink:href="#DejaVuSans-46"/>
       <use x="159.033203" xlink:href="#DejaVuSans-53"/>
      </g>
     </g>
    </g>
    <g id="ytick_7">
     <g id="line2d_13">
      <g>
       <use style="stroke:#000000;stroke-width:0.8;" x="57.6" xlink:href="#m68d67b99a7" y="97.79459"/>
      </g>
     </g>
     <g id="text_14">
      <!-- 15.0 -->
      <g transform="translate(28.334375 101.593809)scale(0.1 -0.1)">
       <use xlink:href="#DejaVuSans-49"/>
       <use x="63.623047" xlink:href="#DejaVuSans-53"/>
       <use x="127.246094" xlink:href="#DejaVuSans-46"/>
       <use x="159.033203" xlink:href="#DejaVuSans-48"/>
      </g>
     </g>
    </g>
    <g id="ytick_8">
     <g id="line2d_14">
      <g>
       <use style="stroke:#000000;stroke-width:0.8;" x="57.6" xlink:href="#m68d67b99a7" y="63.793564"/>
      </g>
     </g>
     <g id="text_15">
      <!-- 17.5 -->
      <g transform="translate(28.334375 67.592783)scale(0.1 -0.1)">
       <use xlink:href="#DejaVuSans-49"/>
       <use x="63.623047" xlink:href="#DejaVuSans-55"/>
       <use x="127.246094" xlink:href="#DejaVuSans-46"/>
       <use x="159.033203" xlink:href="#DejaVuSans-53"/>
      </g>
     </g>
    </g>
    <g id="text_16">
     <!-- Cost -->
     <g transform="translate(22.254688 185.643625)rotate(-90)scale(0.1 -0.1)">
      <defs>
       <path d="M 64.40625 67.28125 
L 64.40625 56.890625 
Q 59.421875 61.53125 53.78125 63.8125 
Q 48.140625 66.109375 41.796875 66.109375 
Q 29.296875 66.109375 22.65625 58.46875 
Q 16.015625 50.828125 16.015625 36.375 
Q 16.015625 21.96875 22.65625 14.328125 
Q 29.296875 6.6875 41.796875 6.6875 
Q 48.140625 6.6875 53.78125 8.984375 
Q 59.421875 11.28125 64.40625 15.921875 
L 64.40625 5.609375 
Q 59.234375 2.09375 53.4375 0.328125 
Q 47.65625 -1.421875 41.21875 -1.421875 
Q 24.65625 -1.421875 15.125 8.703125 
Q 5.609375 18.84375 5.609375 36.375 
Q 5.609375 53.953125 15.125 64.078125 
Q 24.65625 74.21875 41.21875 74.21875 
Q 47.75 74.21875 53.53125 72.484375 
Q 59.328125 70.75 64.40625 67.28125 
z
" id="DejaVuSans-67"/>
      </defs>
      <use xlink:href="#DejaVuSans-67"/>
      <use x="69.824219" xlink:href="#DejaVuSans-111"/>
      <use x="131.005859" xlink:href="#DejaVuSans-115"/>
      <use x="183.105469" xlink:href="#DejaVuSans-116"/>
     </g>
    </g>
   </g>
   <g id="line2d_15">
    <path clip-path="url(#pf4ab15f954)" d="M 73.832727 53.568 
L 75.133948 84.742511 
L 75.784558 100.31584 
L 77.736389 134.489419 
L 79.03761 152.752743 
L 80.989441 173.369584 
L 81.640051 178.054404 
L 82.290661 184.042094 
L 82.941272 188.564098 
L 83.591882 193.930916 
L 85.543713 205.782866 
L 86.194323 208.307685 
L 86.844934 212.399692 
L 91.399206 229.890812 
L 92.049816 231.767919 
L 92.700426 232.745348 
L 93.351037 235.393139 
L 94.652257 237.868639 
L 95.302868 239.786999 
L 97.905309 245.933141 
L 98.555919 247.086341 
L 99.206529 247.377168 
L 99.85714 249.294569 
L 101.15836 250.75585 
L 102.459581 253.110804 
L 104.411412 256.161953 
L 105.062022 256.927402 
L 105.712633 256.851528 
L 106.363243 258.328577 
L 107.664463 259.201825 
L 108.965684 260.879391 
L 111.568125 263.480999 
L 112.218736 263.191218 
L 112.869346 264.381093 
L 113.519956 264.533326 
L 114.170567 264.883934 
L 115.471787 266.113591 
L 116.773008 266.986575 
L 117.423618 267.538475 
L 118.074228 267.924632 
L 118.724839 267.506992 
L 119.375449 268.503516 
L 120.026059 268.505665 
L 120.67667 268.766129 
L 121.97789 269.69254 
L 123.279111 270.286862 
L 124.580332 270.979773 
L 125.230942 270.486584 
L 125.881552 271.350868 
L 126.532163 271.252302 
L 127.182773 271.456418 
L 129.134604 272.319293 
L 131.086435 273.112663 
L 131.737045 272.576584 
L 132.387655 273.349339 
L 133.038266 273.182925 
L 134.339486 273.586981 
L 134.990097 273.92796 
L 135.640707 273.997083 
L 137.592538 274.630424 
L 138.243148 274.071917 
L 138.893758 274.780494 
L 139.544369 274.568306 
L 140.845589 274.887576 
L 141.4962 275.192692 
L 142.14681 275.210423 
L 144.098641 275.736701 
L 144.749251 275.168475 
L 145.399862 275.831331 
L 146.050472 275.588261 
L 147.351692 275.849484 
L 148.002303 276.130332 
L 148.652913 276.112578 
L 150.604744 276.566839 
L 151.255354 275.996649 
L 151.905965 276.626281 
L 152.556575 276.36241 
L 157.110847 277.210869 
L 157.761457 276.643314 
L 158.412068 277.248217 
L 159.062678 276.970391 
L 162.31573 277.494515 
L 163.61695 277.72871 
L 164.267561 277.166393 
L 164.918171 277.752373 
L 165.568781 277.465258 
L 167.520612 277.883398 
L 168.171222 277.811731 
L 170.123053 278.160265 
L 170.773664 277.604544 
L 171.424274 278.175589 
L 172.074884 277.882379 
L 174.026715 278.280451 
L 174.677326 278.200278 
L 176.629156 278.532119 
L 177.279767 277.98359 
L 177.930377 278.542467 
L 178.580987 278.245356 
L 180.532818 278.628627 
L 181.183429 278.542442 
L 183.13526 278.862009 
L 183.78587 278.320813 
L 184.43648 278.869457 
L 185.087091 278.56996 
L 187.038921 278.942003 
L 187.689532 278.851566 
L 189.641363 279.161779 
L 190.291973 278.6278 
L 190.942583 279.167583 
L 191.593194 278.866752 
L 193.545025 279.230007 
L 194.195635 279.136569 
L 196.147466 279.439361 
L 196.798076 278.912345 
L 197.448686 279.444255 
L 198.099297 279.142821 
L 200.051128 279.498967 
L 200.701738 279.403426 
L 202.653569 279.700079 
L 203.304179 279.179711 
L 203.95479 279.704471 
L 204.6054 279.402947 
L 206.557231 279.75315 
L 207.207841 279.656157 
L 209.159672 279.947528 
L 209.810282 279.433476 
L 210.460893 279.951628 
L 211.111503 279.650371 
L 213.063334 279.995452 
L 213.713944 279.897484 
L 215.665775 280.184149 
L 216.316385 279.676088 
L 216.966996 280.188046 
L 217.617606 279.887308 
L 219.569437 280.227853 
L 220.220047 280.129262 
L 222.171878 280.411616 
L 222.822489 279.909241 
L 223.473099 280.415331 
L 224.123709 280.115288 
L 226.07554 280.451726 
L 226.72615 280.352774 
L 228.677981 280.631092 
L 229.328592 280.134126 
L 229.979202 280.634612 
L 230.629812 280.335384 
L 232.581643 280.668036 
L 233.232254 280.56892 
L 235.184085 280.8434 
L 235.834695 280.351594 
L 236.485305 280.846693 
L 237.135915 280.548365 
L 239.087746 280.877476 
L 239.738357 280.778346 
L 241.690188 281.049136 
L 242.340798 280.562267 
L 242.991408 281.052165 
L 243.642019 280.754792 
L 245.59385 281.080557 
L 246.24446 280.981527 
L 248.196291 281.248742 
L 248.846901 280.766615 
L 249.497511 281.251473 
L 250.148122 280.95509 
L 252.099953 281.277668 
L 252.750563 281.178825 
L 254.702394 281.44256 
L 255.353004 280.965002 
L 256.003615 281.444962 
L 256.654225 281.149591 
L 258.606056 281.469115 
L 259.256666 281.370526 
L 261.208497 281.630863 
L 261.859107 281.15772 
L 262.509718 281.632912 
L 263.160328 281.338561 
L 265.112159 281.655148 
L 265.762769 281.556864 
L 267.7146 281.813876 
L 268.36521 281.345011 
L 269.015821 281.815555 
L 269.666431 281.522226 
L 271.618262 281.835977 
L 272.268872 281.738038 
L 274.220703 281.991792 
L 274.871314 281.527085 
L 275.521924 281.99309 
L 276.172534 281.700777 
L 278.124365 282.011787 
L 278.774975 281.914224 
L 280.726806 282.164783 
L 281.377417 281.704124 
L 282.028027 282.165694 
L 282.678637 281.874389 
L 284.630468 282.182742 
L 285.281079 282.085579 
L 287.232909 282.333004 
L 287.88352 281.876294 
L 288.53413 282.333527 
L 289.18474 282.043218 
L 291.136571 282.348994 
L 291.787182 282.252248 
L 293.739013 282.496597 
L 294.389623 282.043748 
L 295.040233 282.496736 
L 295.690844 282.207408 
L 297.642674 282.510683 
L 298.293285 282.414367 
L 300.245116 282.655699 
L 300.895726 282.206628 
L 301.546336 282.655462 
L 302.196947 282.367097 
L 304.148778 282.667941 
L 304.799388 282.572066 
L 306.751219 282.810437 
L 307.401829 282.365069 
L 308.052439 282.809833 
L 308.70305 282.522414 
L 310.654881 282.820896 
L 311.305491 282.725468 
L 313.257322 282.960933 
L 313.907932 282.519197 
L 314.558543 282.959975 
L 315.209153 282.673483 
L 317.160984 282.969668 
L 317.811594 282.874692 
L 319.763425 283.107305 
L 320.414035 282.669136 
L 321.064646 283.106007 
L 321.715256 282.820422 
L 323.667087 283.114375 
L 324.317697 283.019853 
L 326.269528 283.249668 
L 326.920138 282.815003 
L 327.570749 283.248044 
L 328.221359 282.963347 
L 330.17319 283.255127 
L 330.8238 283.161062 
L 332.775631 283.38813 
L 333.426242 282.956911 
L 334.076852 283.386199 
L 334.727462 283.102368 
L 336.679293 283.392035 
L 337.329903 283.298426 
L 339.281734 283.5228 
L 339.932345 283.09497 
L 340.582955 283.520577 
L 341.233565 283.237593 
L 343.185396 283.525205 
L 343.836007 283.432051 
L 345.787837 283.65378 
L 346.438448 283.229286 
L 347.089058 283.651284 
L 347.739668 283.369127 
L 349.691499 283.654737 
L 350.34211 283.562037 
L 352.293941 283.781172 
L 352.944551 283.359962 
L 353.595161 283.77842 
L 354.245772 283.49707 
L 356.197602 283.780733 
L 356.848213 283.688485 
L 358.800044 283.905073 
L 359.450654 283.487098 
L 360.101264 283.902083 
L 360.751875 283.62152 
L 362.703706 283.903289 
L 363.354316 283.81149 
L 365.306147 284.025579 
L 365.956757 283.61079 
L 366.607367 284.022369 
L 367.257978 283.742574 
L 369.209809 284.022499 
L 369.860419 283.931146 
L 371.81225 284.142783 
L 372.46286 283.731133 
L 373.113471 284.13937 
L 373.764081 283.860324 
L 375.715912 284.138454 
L 376.366522 284.047544 
L 378.318353 284.256775 
L 378.968963 283.848217 
L 379.619574 284.253176 
L 380.270184 283.97486 
L 382.222015 284.251244 
L 382.872625 284.160772 
L 384.824456 284.367642 
L 385.475066 283.962133 
L 386.125677 284.363875 
L 386.776287 284.08627 
L 388.728118 284.360954 
L 389.378728 284.270917 
L 391.330559 284.47547 
L 391.98117 284.072966 
L 392.63178 284.471551 
L 393.28239 284.194639 
L 395.234221 284.467668 
L 395.884831 284.378064 
L 397.836662 284.580342 
L 398.487273 284.1808 
L 398.487273 284.1808 
" style="fill:none;stroke:#1f77b4;stroke-linecap:square;stroke-width:1.5;"/>
   </g>
   <g id="line2d_16">
    <path clip-path="url(#pf4ab15f954)" d="M 73.832727 113.430987 
L 74.483338 171.725719 
L 75.133948 168.962394 
L 75.784558 221.130066 
L 76.435169 189.832091 
L 77.085779 232.407238 
L 77.736389 228.673396 
L 78.386999 249.315742 
L 79.03761 229.099016 
L 79.68822 234.625791 
L 80.33883 257.944953 
L 80.989441 265.408451 
L 81.640051 248.675419 
L 82.290661 256.924545 
L 82.941272 258.010915 
L 83.591882 272.114991 
L 84.242492 268.205117 
L 84.893103 279.45526 
L 85.543713 277.421009 
L 86.194323 276.560582 
L 86.844934 268.107146 
L 87.495544 276.189641 
L 88.146154 274.748597 
L 88.796764 279.135579 
L 89.447375 279.645778 
L 90.097985 281.032994 
L 90.748595 277.237851 
L 91.399206 278.944622 
L 92.049816 284.47468 
L 92.700426 279.382617 
L 93.351037 278.287987 
L 94.001647 280.519097 
L 94.652257 278.582452 
L 95.302868 276.292366 
L 95.953478 279.233084 
L 96.604088 286.26242 
L 97.254698 282.525714 
L 97.905309 279.720214 
L 98.555919 279.392759 
L 99.206529 282.354538 
L 99.85714 281.619967 
L 100.50775 279.986064 
L 101.15836 278.966176 
L 101.808971 276.065455 
L 102.459581 280.530793 
L 103.110191 274.166898 
L 104.411412 289.033625 
L 105.062022 284.19963 
L 105.712633 286.665449 
L 106.363243 281.552319 
L 107.013853 271.990843 
L 107.664463 279.782061 
L 108.315074 278.87201 
L 108.965684 277.502309 
L 109.616294 285.718348 
L 110.917515 283.215985 
L 111.568125 280.593538 
L 112.218736 274.762026 
L 112.869346 287.807775 
L 113.519956 278.104116 
L 114.170567 280.342049 
L 114.821177 281.388853 
L 115.471787 277.986256 
L 116.122398 282.533221 
L 116.773008 280.866735 
L 117.423618 286.158224 
L 118.074228 283.899392 
L 118.724839 281.049735 
L 119.375449 282.180457 
L 120.026059 289.224753 
L 120.67667 277.266359 
L 121.32728 285.299512 
L 121.97789 276.896896 
L 122.628501 283.612531 
L 123.279111 282.299232 
L 123.929721 279.510967 
L 124.580332 287.75017 
L 125.230942 282.903624 
L 125.881552 286.425682 
L 126.532163 285.042572 
L 127.182773 277.061264 
L 127.833383 285.395906 
L 129.134604 282.619683 
L 129.785214 283.468631 
L 130.435824 282.302449 
L 131.086435 287.773776 
L 131.737045 283.502098 
L 132.387655 287.105254 
L 133.038266 285.842916 
L 133.688876 286.912974 
L 134.339486 286.097126 
L 134.990097 288.72544 
L 135.640707 281.51877 
L 136.291317 286.553484 
L 136.941927 283.648929 
L 137.592538 279.534737 
L 138.243148 280.841791 
L 138.893758 285.951863 
L 139.544369 281.407568 
L 140.194979 279.636707 
L 140.845589 287.481675 
L 141.4962 286.114503 
L 142.14681 282.090652 
L 142.79742 285.549217 
L 143.448031 279.97297 
L 144.098641 286.426155 
L 144.749251 284.516057 
L 145.399862 287.524407 
L 146.050472 282.288858 
L 146.701082 280.840035 
L 148.002303 285.846844 
L 148.652913 286.334676 
L 149.303523 289.520172 
L 149.954134 285.297125 
L 150.604744 282.438964 
L 151.255354 293.531283 
L 152.556575 280.028169 
L 153.207185 287.947093 
L 153.857796 287.044596 
L 154.508406 286.643293 
L 155.159016 285.767823 
L 155.809627 290.00181 
L 156.460237 288.656704 
L 157.110847 281.550078 
L 157.761457 284.441558 
L 158.412068 279.879328 
L 159.062678 279.556803 
L 159.713288 286.05025 
L 160.363899 281.790236 
L 161.014509 286.87032 
L 161.665119 284.012906 
L 162.31573 290.567541 
L 162.96634 286.460613 
L 163.61695 285.898944 
L 164.267561 288.534557 
L 164.918171 282.374592 
L 165.568781 285.148278 
L 166.219392 286.020217 
L 166.870002 287.442497 
L 167.520612 284.336129 
L 168.171222 288.854066 
L 168.821833 282.09473 
L 169.472443 283.535637 
L 170.123053 291.554181 
L 170.773664 285.499915 
L 171.424274 288.256915 
L 172.074884 287.969276 
L 172.725495 284.500574 
L 173.376105 290.660206 
L 174.026715 288.668943 
L 174.677326 290.837005 
L 175.327936 287.606877 
L 175.978546 287.569442 
L 176.629156 288.236202 
L 177.279767 288.286768 
L 177.930377 287.320309 
L 178.580987 288.213933 
L 179.231598 288.17091 
L 179.882208 289.145532 
L 180.532818 285.894454 
L 181.183429 286.330338 
L 181.834039 288.375912 
L 182.484649 285.082215 
L 183.13526 288.364928 
L 183.78587 284.319556 
L 184.43648 284.505104 
L 185.087091 288.877844 
L 185.737701 289.982351 
L 186.388311 289.990207 
L 187.038921 288.381866 
L 187.689532 287.374691 
L 188.340142 282.893975 
L 188.990752 280.713316 
L 189.641363 289.07915 
L 190.291973 286.023105 
L 190.942583 282.085062 
L 191.593194 289.406532 
L 192.243804 288.599655 
L 192.894414 291.032045 
L 193.545025 286.824538 
L 194.195635 283.51844 
L 194.846245 288.907335 
L 195.496856 286.519697 
L 196.147466 287.328069 
L 196.798076 282.815008 
L 197.448686 285.573548 
L 198.099297 289.025948 
L 198.749907 283.676943 
L 199.400517 286.02353 
L 200.051128 287.833513 
L 200.701738 281.332367 
L 201.352348 288.294691 
L 202.002959 291.868422 
L 202.653569 289.47709 
L 203.304179 281.42942 
L 203.95479 288.871098 
L 204.6054 285.347601 
L 205.25601 287.084088 
L 206.557231 289.98 
L 207.207841 282.547532 
L 207.858451 283.447333 
L 208.509062 284.99423 
L 209.159672 291.538987 
L 209.810282 285.760984 
L 210.460893 287.557465 
L 211.111503 281.501431 
L 211.762113 286.01114 
L 212.412724 285.775032 
L 213.063334 291.023981 
L 213.713944 287.090895 
L 214.364555 288.483297 
L 215.015165 288.755752 
L 215.665775 284.819758 
L 216.316385 282.530218 
L 216.966996 283.248841 
L 217.617606 285.077145 
L 218.268216 290.019117 
L 218.918827 285.867069 
L 219.569437 285.579439 
L 220.220047 285.967544 
L 220.870658 287.223518 
L 221.521268 288.099245 
L 222.171878 284.991484 
L 222.822489 290.379768 
L 223.473099 283.978815 
L 224.123709 290.742223 
L 224.77432 288.732251 
L 225.42493 288.074667 
L 226.07554 290.590242 
L 226.72615 285.114213 
L 227.376761 287.693113 
L 228.027371 282.319389 
L 228.677981 290.501447 
L 229.328592 287.891555 
L 229.979202 282.799331 
L 230.629812 289.467331 
L 231.280423 285.966113 
L 231.931033 285.895773 
L 232.581643 289.339851 
L 233.232254 283.082705 
L 233.882864 290.226363 
L 234.533474 285.182404 
L 235.184085 288.468591 
L 235.834695 289.982506 
L 236.485305 290.967787 
L 237.135915 289.226861 
L 237.786526 287.934667 
L 238.437136 281.236956 
L 239.087746 284.772886 
L 239.738357 289.996953 
L 240.388967 292.446764 
L 241.690188 284.394533 
L 242.340798 292.064353 
L 242.991408 284.864114 
L 243.642019 288.565667 
L 244.292629 290.187532 
L 244.943239 286.347293 
L 245.59385 290.598964 
L 246.24446 289.191892 
L 246.89507 290.562956 
L 247.54568 287.81021 
L 248.196291 288.592437 
L 248.846901 287.240895 
L 249.497511 283.846892 
L 250.148122 290.904608 
L 250.798732 290.396257 
L 251.449342 289.110289 
L 252.099953 282.433754 
L 252.750563 290.171539 
L 253.401173 283.000229 
L 254.051784 284.344893 
L 254.702394 288.977061 
L 255.353004 290.442026 
L 256.003615 287.18284 
L 256.654225 285.594001 
L 257.304835 285.342093 
L 257.955445 289.458111 
L 258.606056 284.051765 
L 259.256666 287.824057 
L 259.907276 289.641488 
L 260.557887 284.846011 
L 261.208497 287.257474 
L 261.859107 291.17214 
L 262.509718 288.152152 
L 263.160328 291.801715 
L 263.810938 283.939489 
L 264.461549 286.012222 
L 265.112159 288.639044 
L 265.762769 286.557755 
L 266.413379 287.222565 
L 267.06399 287.195508 
L 267.7146 286.942451 
L 268.36521 285.689439 
L 269.015821 287.519301 
L 269.666431 282.55072 
L 270.317041 285.561355 
L 270.967652 291.143506 
L 271.618262 288.721656 
L 272.268872 293.441248 
L 272.919483 282.989785 
L 273.570093 291.94326 
L 274.220703 286.088863 
L 274.871314 291.499981 
L 275.521924 287.165133 
L 276.172534 288.667453 
L 276.823144 291.402233 
L 278.124365 284.33635 
L 278.774975 291.693824 
L 279.425586 293.371042 
L 280.076196 283.581362 
L 280.726806 284.949494 
L 281.377417 290.310826 
L 282.028027 290.080262 
L 282.678637 284.531563 
L 283.979858 290.003105 
L 284.630468 286.937657 
L 285.281079 288.839375 
L 285.931689 289.647111 
L 286.582299 285.459172 
L 287.232909 288.479962 
L 287.88352 293.88752 
L 288.53413 288.37939 
L 289.18474 291.586372 
L 289.835351 286.169428 
L 290.485961 292.609894 
L 291.136571 291.692193 
L 291.787182 292.118457 
L 292.437792 281.112138 
L 293.088402 285.771635 
L 293.739013 288.806428 
L 294.389623 287.149888 
L 295.690844 292.096507 
L 296.341454 284.778945 
L 296.992064 284.82876 
L 297.642674 289.766179 
L 298.293285 285.670052 
L 299.594505 290.361313 
L 300.245116 288.632264 
L 300.895726 284.883358 
L 301.546336 283.018805 
L 302.196947 287.465226 
L 302.847557 289.564747 
L 303.498167 285.929809 
L 304.148778 284.577414 
L 304.799388 288.67862 
L 305.449998 290.581105 
L 306.100608 291.879258 
L 306.751219 287.644499 
L 307.401829 286.330794 
L 308.052439 294.813397 
L 308.70305 289.5502 
L 309.35366 285.313626 
L 310.00427 289.953157 
L 310.654881 284.425042 
L 311.305491 287.832395 
L 311.956101 288.631928 
L 312.606712 292.518625 
L 313.257322 286.544574 
L 313.907932 290.170953 
L 314.558543 289.073709 
L 315.209153 280.967515 
L 315.859763 287.847665 
L 316.510373 284.58979 
L 317.160984 289.151683 
L 317.811594 288.332084 
L 318.462204 290.611887 
L 319.112815 283.915823 
L 319.763425 283.808424 
L 320.414035 286.239627 
L 321.064646 287.216194 
L 321.715256 288.99062 
L 322.365866 286.021991 
L 323.016477 289.711953 
L 323.667087 286.534546 
L 324.317697 288.532495 
L 324.968308 286.667133 
L 325.618918 285.950405 
L 326.269528 289.922413 
L 326.920138 285.678446 
L 327.570749 292.385748 
L 328.221359 291.735351 
L 328.871969 292.296529 
L 329.52258 284.34215 
L 330.17319 289.296421 
L 330.8238 289.523912 
L 331.474411 286.705463 
L 332.125021 291.627382 
L 332.775631 290.797222 
L 333.426242 285.703963 
L 334.076852 287.165762 
L 334.727462 288.085777 
L 335.378073 281.709099 
L 336.028683 287.452718 
L 336.679293 286.819585 
L 337.329903 291.614906 
L 337.980514 286.654849 
L 339.932345 287.091336 
L 340.582955 284.230137 
L 341.233565 290.028514 
L 341.884176 285.476655 
L 342.534786 290.378823 
L 343.185396 286.781077 
L 343.836007 286.94893 
L 344.486617 290.221821 
L 345.137227 285.93721 
L 345.787837 295.488 
L 346.438448 289.858701 
L 347.089058 289.430137 
L 347.739668 289.3724 
L 348.390279 289.654455 
L 349.040889 288.459393 
L 349.691499 286.919679 
L 350.34211 288.381321 
L 350.99272 285.231152 
L 352.293941 292.164648 
L 352.944551 283.048005 
L 353.595161 290.364477 
L 354.245772 287.993345 
L 354.896382 289.259562 
L 355.546992 289.349935 
L 356.197602 290.025774 
L 356.848213 290.186302 
L 358.149433 288.242661 
L 358.800044 292.172097 
L 359.450654 287.832274 
L 360.101264 290.245415 
L 360.751875 284.214222 
L 361.402485 291.967401 
L 362.053095 283.712499 
L 362.703706 288.405774 
L 363.354316 290.332198 
L 364.004926 283.932301 
L 364.655537 284.583663 
L 365.306147 279.389953 
L 365.956757 291.66535 
L 366.607367 289.239211 
L 367.257978 285.980706 
L 367.908588 287.767378 
L 369.209809 289.509007 
L 369.860419 288.684582 
L 370.511029 290.492755 
L 371.16164 283.799419 
L 371.81225 289.917438 
L 372.46286 289.570125 
L 373.113471 288.609818 
L 373.764081 290.472513 
L 374.414691 285.757522 
L 375.065302 286.45655 
L 375.715912 291.079208 
L 376.366522 290.844632 
L 377.017132 286.949023 
L 377.667743 285.200021 
L 378.318353 288.041316 
L 378.968963 287.383299 
L 379.619574 291.05883 
L 380.270184 288.810842 
L 380.920794 289.226083 
L 381.571405 282.072979 
L 382.222015 284.852185 
L 382.872625 284.831681 
L 383.523236 290.845938 
L 384.173846 288.977716 
L 384.824456 294.589817 
L 385.475066 290.585306 
L 386.125677 287.35312 
L 386.776287 286.607739 
L 387.426897 289.487878 
L 388.077508 287.818833 
L 388.728118 287.937456 
L 389.378728 289.619444 
L 390.029339 290.066054 
L 390.679949 286.317978 
L 391.330559 290.994804 
L 391.98117 288.327581 
L 392.63178 289.01433 
L 393.28239 286.67274 
L 393.933001 291.813855 
L 394.583611 289.442373 
L 395.234221 286.000173 
L 395.884831 289.290901 
L 396.535442 287.577443 
L 397.186052 288.177832 
L 397.836662 287.399124 
L 398.487273 288.304664 
L 398.487273 288.304664 
" style="fill:none;stroke:#ff7f0e;stroke-linecap:square;stroke-width:1.5;"/>
   </g>
   <g id="patch_3">
    <path d="M 57.6 307.584 
L 57.6 41.472 
" style="fill:none;stroke:#000000;stroke-linecap:square;stroke-linejoin:miter;stroke-width:0.8;"/>
   </g>
   <g id="patch_4">
    <path d="M 414.72 307.584 
L 414.72 41.472 
" style="fill:none;stroke:#000000;stroke-linecap:square;stroke-linejoin:miter;stroke-width:0.8;"/>
   </g>
   <g id="patch_5">
    <path d="M 57.6 307.584 
L 414.72 307.584 
" style="fill:none;stroke:#000000;stroke-linecap:square;stroke-linejoin:miter;stroke-width:0.8;"/>
   </g>
   <g id="patch_6">
    <path d="M 57.6 41.472 
L 414.72 41.472 
" style="fill:none;stroke:#000000;stroke-linecap:square;stroke-linejoin:miter;stroke-width:0.8;"/>
   </g>
   <g id="text_17">
    <!-- Cost vs Iterations -->
    <g transform="translate(183.754687 35.472)scale(0.12 -0.12)">
     <defs>
      <path id="DejaVuSans-32"/>
      <path d="M 2.984375 54.6875 
L 12.5 54.6875 
L 29.59375 8.796875 
L 46.6875 54.6875 
L 56.203125 54.6875 
L 35.6875 0 
L 23.484375 0 
z
" id="DejaVuSans-118"/>
     </defs>
     <use xlink:href="#DejaVuSans-67"/>
     <use x="69.824219" xlink:href="#DejaVuSans-111"/>
     <use x="131.005859" xlink:href="#DejaVuSans-115"/>
     <use x="183.105469" xlink:href="#DejaVuSans-116"/>
     <use x="222.314453" xlink:href="#DejaVuSans-32"/>
     <use x="254.101562" xlink:href="#DejaVuSans-118"/>
     <use x="313.28125" xlink:href="#DejaVuSans-115"/>
     <use x="365.380859" xlink:href="#DejaVuSans-32"/>
     <use x="397.167969" xlink:href="#DejaVuSans-73"/>
     <use x="426.660156" xlink:href="#DejaVuSans-116"/>
     <use x="465.869141" xlink:href="#DejaVuSans-101"/>
     <use x="527.392578" xlink:href="#DejaVuSans-114"/>
     <use x="568.505859" xlink:href="#DejaVuSans-97"/>
     <use x="629.785156" xlink:href="#DejaVuSans-116"/>
     <use x="668.994141" xlink:href="#DejaVuSans-105"/>
     <use x="696.777344" xlink:href="#DejaVuSans-111"/>
     <use x="757.958984" xlink:href="#DejaVuSans-110"/>
     <use x="821.337891" xlink:href="#DejaVuSans-115"/>
    </g>
   </g>
   <g id="legend_1">
    <g id="patch_7">
     <path d="M 353.923125 78.82825 
L 407.72 78.82825 
Q 409.72 78.82825 409.72 76.82825 
L 409.72 48.472 
Q 409.72 46.472 407.72 46.472 
L 353.923125 46.472 
Q 351.923125 46.472 351.923125 48.472 
L 351.923125 76.82825 
Q 351.923125 78.82825 353.923125 78.82825 
z
" style="fill:#ffffff;opacity:0.8;stroke:#cccccc;stroke-linejoin:miter;"/>
    </g>
    <g id="line2d_17">
     <path d="M 355.923125 54.570437 
L 375.923125 54.570437 
" style="fill:none;stroke:#1f77b4;stroke-linecap:square;stroke-width:1.5;"/>
    </g>
    <g id="line2d_18"/>
    <g id="text_18">
     <!-- GD -->
     <g transform="translate(383.923125 58.070437)scale(0.1 -0.1)">
      <defs>
       <path d="M 59.515625 10.40625 
L 59.515625 29.984375 
L 43.40625 29.984375 
L 43.40625 38.09375 
L 69.28125 38.09375 
L 69.28125 6.78125 
Q 63.578125 2.734375 56.6875 0.65625 
Q 49.8125 -1.421875 42 -1.421875 
Q 24.90625 -1.421875 15.25 8.5625 
Q 5.609375 18.5625 5.609375 36.375 
Q 5.609375 54.25 15.25 64.234375 
Q 24.90625 74.21875 42 74.21875 
Q 49.125 74.21875 55.546875 72.453125 
Q 61.96875 70.703125 67.390625 67.28125 
L 67.390625 56.78125 
Q 61.921875 61.421875 55.765625 63.765625 
Q 49.609375 66.109375 42.828125 66.109375 
Q 29.4375 66.109375 22.71875 58.640625 
Q 16.015625 51.171875 16.015625 36.375 
Q 16.015625 21.625 22.71875 14.15625 
Q 29.4375 6.6875 42.828125 6.6875 
Q 48.046875 6.6875 52.140625 7.59375 
Q 56.25 8.5 59.515625 10.40625 
z
" id="DejaVuSans-71"/>
       <path d="M 19.671875 64.796875 
L 19.671875 8.109375 
L 31.59375 8.109375 
Q 46.6875 8.109375 53.6875 14.9375 
Q 60.6875 21.78125 60.6875 36.53125 
Q 60.6875 51.171875 53.6875 57.984375 
Q 46.6875 64.796875 31.59375 64.796875 
z
M 9.8125 72.90625 
L 30.078125 72.90625 
Q 51.265625 72.90625 61.171875 64.09375 
Q 71.09375 55.28125 71.09375 36.53125 
Q 71.09375 17.671875 61.125 8.828125 
Q 51.171875 0 30.078125 0 
L 9.8125 0 
z
" id="DejaVuSans-68"/>
      </defs>
      <use xlink:href="#DejaVuSans-71"/>
      <use x="77.490234" xlink:href="#DejaVuSans-68"/>
     </g>
    </g>
    <g id="line2d_19">
     <path d="M 355.923125 69.248562 
L 375.923125 69.248562 
" style="fill:none;stroke:#ff7f0e;stroke-linecap:square;stroke-width:1.5;"/>
    </g>
    <g id="line2d_20"/>
    <g id="text_19">
     <!-- SGD -->
     <g transform="translate(383.923125 72.748562)scale(0.1 -0.1)">
      <defs>
       <path d="M 53.515625 70.515625 
L 53.515625 60.890625 
Q 47.90625 63.578125 42.921875 64.890625 
Q 37.9375 66.21875 33.296875 66.21875 
Q 25.25 66.21875 20.875 63.09375 
Q 16.5 59.96875 16.5 54.203125 
Q 16.5 49.359375 19.40625 46.890625 
Q 22.3125 44.4375 30.421875 42.921875 
L 36.375 41.703125 
Q 47.40625 39.59375 52.65625 34.296875 
Q 57.90625 29 57.90625 20.125 
Q 57.90625 9.515625 50.796875 4.046875 
Q 43.703125 -1.421875 29.984375 -1.421875 
Q 24.8125 -1.421875 18.96875 -0.25 
Q 13.140625 0.921875 6.890625 3.21875 
L 6.890625 13.375 
Q 12.890625 10.015625 18.65625 8.296875 
Q 24.421875 6.59375 29.984375 6.59375 
Q 38.421875 6.59375 43.015625 9.90625 
Q 47.609375 13.234375 47.609375 19.390625 
Q 47.609375 24.75 44.3125 27.78125 
Q 41.015625 30.8125 33.5 32.328125 
L 27.484375 33.5 
Q 16.453125 35.6875 11.515625 40.375 
Q 6.59375 45.0625 6.59375 53.421875 
Q 6.59375 63.09375 13.40625 68.65625 
Q 20.21875 74.21875 32.171875 74.21875 
Q 37.3125 74.21875 42.625 73.28125 
Q 47.953125 72.359375 53.515625 70.515625 
z
" id="DejaVuSans-83"/>
      </defs>
      <use xlink:href="#DejaVuSans-83"/>
      <use x="63.476562" xlink:href="#DejaVuSans-71"/>
      <use x="140.966797" xlink:href="#DejaVuSans-68"/>
     </g>
    </g>
   </g>
  </g>
 </g>
 <defs>
  <clipPath id="pf4ab15f954">
   <rect height="266.112" width="357.12" x="57.6" y="41.472"/>
  </clipPath>
 </defs>
</svg>
